<svg xmlns="http://www.w3.org/2000/svg" xmlns:xlink="http://www.w3.org/1999/xlink" width="397" zoomAndPan="magnify" viewBox="0 0 297.75 95.999999" height="128" preserveAspectRatio="xMidYMid meet" version="1.2"><defs/><g id="07ec4a9529"><g style="fill:#ffffff;fill-opacity:1;"><g transform="translate(29.41759, 34.391061)"><path style="stroke:none" d="M 2.046875 1.78125 C 1.972656 1.90625 1.851562 2.0625 1.6875 2.25 C 1.53125 2.445312 1.351562 2.59375 1.15625 2.6875 L -1.84375 3.9375 L -1.5 3.25 L 1.984375 1.71875 Z M 2.046875 1.78125 "/></g></g><g style="fill:#ffffff;fill-opacity:1;"><g transform="translate(27.904165, 34.179887)"><path style="stroke:none" d="M 6.03125 -1.484375 C 6.207031 -1.484375 6.328125 -1.425781 6.390625 -1.3125 C 6.453125 -1.195312 6.484375 -1.019531 6.484375 -0.78125 L 6.484375 -0.6875 C 6.484375 -0.414062 6.410156 -0.234375 6.265625 -0.140625 C 6.117188 -0.046875 5.925781 0 5.6875 0 C 5.394531 0 5.144531 -0.0195312 4.9375 -0.0625 C 4.726562 -0.101562 4.546875 -0.175781 4.390625 -0.28125 C 4.234375 -0.382812 4.082031 -0.523438 3.9375 -0.703125 C 3.800781 -0.878906 3.65625 -1.101562 3.5 -1.375 C 3.375 -1.59375 3.238281 -1.742188 3.09375 -1.828125 C 2.945312 -1.921875 2.769531 -1.96875 2.5625 -1.96875 C 2.320312 -1.96875 2.085938 -1.910156 1.859375 -1.796875 C 1.628906 -1.691406 1.40625 -1.546875 1.1875 -1.359375 C 0.976562 -1.171875 0.78125 -0.945312 0.59375 -0.6875 C 0.40625 -0.4375 0.238281 -0.175781 0.09375 0.09375 L 0 0.046875 C 0.0703125 -0.421875 0.207031 -0.863281 0.40625 -1.28125 C 0.601562 -1.707031 0.84375 -2.082031 1.125 -2.40625 C 1.40625 -2.738281 1.722656 -3 2.078125 -3.1875 C 2.429688 -3.382812 2.796875 -3.484375 3.171875 -3.484375 C 3.367188 -3.484375 3.53125 -3.421875 3.65625 -3.296875 C 3.789062 -3.171875 3.914062 -3 4.03125 -2.78125 C 4.164062 -2.5 4.289062 -2.269531 4.40625 -2.09375 C 4.519531 -1.925781 4.644531 -1.796875 4.78125 -1.703125 C 4.925781 -1.609375 5.09375 -1.546875 5.28125 -1.515625 C 5.476562 -1.492188 5.726562 -1.484375 6.03125 -1.484375 Z M 6.03125 -1.484375 "/></g></g><g style="fill:#ffffff;fill-opacity:1;"><g transform="translate(34.766803, 32.508077)"><path style="stroke:none" d="M 2.125 -14.328125 C 2.125 -14.234375 2.097656 -14.09375 2.046875 -13.90625 C 1.992188 -13.71875 1.914062 -13.523438 1.8125 -13.328125 C 1.71875 -13.140625 1.59375 -12.972656 1.4375 -12.828125 C 1.289062 -12.679688 1.125 -12.609375 0.9375 -12.609375 C 0.800781 -12.609375 0.660156 -12.640625 0.515625 -12.703125 C 0.378906 -12.765625 0.265625 -12.847656 0.171875 -12.953125 C 0.117188 -12.867188 0.0546875 -12.773438 -0.015625 -12.671875 C -0.0976562 -12.566406 -0.191406 -12.46875 -0.296875 -12.375 C -0.398438 -12.28125 -0.519531 -12.195312 -0.65625 -12.125 C -0.789062 -12.0625 -0.941406 -12.03125 -1.109375 -12.03125 C -1.367188 -12.03125 -1.582031 -12.125 -1.75 -12.3125 C -1.914062 -12.5 -2 -12.769531 -2 -13.125 C -2 -13.238281 -1.976562 -13.375 -1.9375 -13.53125 C -1.894531 -13.6875 -1.835938 -13.835938 -1.765625 -13.984375 C -1.691406 -14.128906 -1.59375 -14.265625 -1.46875 -14.390625 C -1.351562 -14.515625 -1.222656 -14.613281 -1.078125 -14.6875 L -1.03125 -14.625 C -1.164062 -14.46875 -1.257812 -14.300781 -1.3125 -14.125 C -1.363281 -13.957031 -1.390625 -13.796875 -1.390625 -13.640625 C -1.390625 -13.484375 -1.347656 -13.332031 -1.265625 -13.1875 C -1.179688 -13.050781 -1.046875 -12.984375 -0.859375 -12.984375 C -0.648438 -12.984375 -0.492188 -13.046875 -0.390625 -13.171875 C -0.296875 -13.304688 -0.222656 -13.46875 -0.171875 -13.65625 C -0.128906 -13.84375 -0.0976562 -14.035156 -0.078125 -14.234375 C -0.0546875 -14.429688 -0.03125 -14.59375 0 -14.71875 C 0.0820312 -14.976562 0.222656 -15.144531 0.421875 -15.21875 C 0.421875 -15.144531 0.414062 -15.078125 0.40625 -15.015625 C 0.40625 -14.953125 0.40625 -14.890625 0.40625 -14.828125 C 0.40625 -14.285156 0.472656 -13.921875 0.609375 -13.734375 C 0.742188 -13.546875 0.925781 -13.453125 1.15625 -13.453125 C 1.25 -13.453125 1.34375 -13.507812 1.4375 -13.625 C 1.53125 -13.738281 1.578125 -13.84375 1.578125 -13.9375 C 1.578125 -14.132812 1.535156 -14.316406 1.453125 -14.484375 C 1.378906 -14.660156 1.34375 -14.832031 1.34375 -15 C 1.34375 -15.132812 1.375 -15.300781 1.4375 -15.5 C 1.5 -15.707031 1.632812 -15.875 1.84375 -16 L 1.90625 -15.9375 C 1.851562 -15.851562 1.828125 -15.742188 1.828125 -15.609375 C 1.828125 -15.503906 1.84375 -15.40625 1.875 -15.3125 C 1.90625 -15.226562 1.941406 -15.132812 1.984375 -15.03125 C 2.023438 -14.9375 2.054688 -14.828125 2.078125 -14.703125 C 2.109375 -14.585938 2.125 -14.460938 2.125 -14.328125 Z M 0.546875 -17.609375 C 0.546875 -17.335938 0.488281 -17.054688 0.375 -16.765625 C 0.269531 -16.484375 0.132812 -16.226562 -0.03125 -16 L -0.109375 -16.03125 C -0.0859375 -16.113281 -0.0664062 -16.207031 -0.046875 -16.3125 C -0.0234375 -16.414062 -0.015625 -16.5625 -0.015625 -16.75 C -0.015625 -16.820312 -0.0234375 -16.945312 -0.046875 -17.125 C -0.0664062 -17.3125 -0.0976562 -17.519531 -0.140625 -17.75 C -0.191406 -17.976562 -0.253906 -18.21875 -0.328125 -18.46875 C -0.398438 -18.726562 -0.492188 -18.960938 -0.609375 -19.171875 C -0.585938 -19.335938 -0.519531 -19.523438 -0.40625 -19.734375 C -0.300781 -19.953125 -0.195312 -20.113281 -0.09375 -20.21875 C 0.144531 -19.75 0.3125 -19.28125 0.40625 -18.8125 C 0.5 -18.34375 0.546875 -17.941406 0.546875 -17.609375 Z M 0.546875 -17.609375 "/></g></g><g style="fill:#ffffff;fill-opacity:1;"><g transform="translate(33.763713, 34.179887)"><path style="stroke:none" d="M 2.765625 -2.09375 C 2.484375 -1.425781 2.109375 -0.910156 1.640625 -0.546875 C 1.179688 -0.179688 0.578125 0 -0.171875 0 C -0.296875 0 -0.40625 -0.0507812 -0.5 -0.15625 C -0.59375 -0.257812 -0.640625 -0.429688 -0.640625 -0.671875 L -0.640625 -0.78125 C -0.640625 -1.019531 -0.5625 -1.195312 -0.40625 -1.3125 C -0.25 -1.425781 -0.0546875 -1.484375 0.171875 -1.484375 C 0.703125 -1.484375 1.113281 -1.53125 1.40625 -1.625 C 1.707031 -1.726562 1.9375 -1.863281 2.09375 -2.03125 C 2.25 -2.195312 2.34375 -2.394531 2.375 -2.625 C 2.40625 -2.863281 2.421875 -3.125 2.421875 -3.40625 C 2.421875 -3.800781 2.414062 -4.25 2.40625 -4.75 C 2.394531 -5.25 2.378906 -5.769531 2.359375 -6.3125 C 2.335938 -6.851562 2.3125 -7.394531 2.28125 -7.9375 C 2.257812 -8.488281 2.226562 -8.992188 2.1875 -9.453125 C 2.15625 -9.921875 2.125 -10.332031 2.09375 -10.6875 C 2.0625 -11.039062 2.023438 -11.300781 1.984375 -11.46875 C 1.984375 -11.539062 2.046875 -11.644531 2.171875 -11.78125 C 2.304688 -11.914062 2.453125 -12.046875 2.609375 -12.171875 C 2.765625 -12.304688 2.914062 -12.425781 3.0625 -12.53125 C 3.21875 -12.632812 3.304688 -12.691406 3.328125 -12.703125 L 3.375 -12.671875 C 3.363281 -12.171875 3.351562 -11.65625 3.34375 -11.125 C 3.34375 -10.601562 3.34375 -10.078125 3.34375 -9.546875 C 3.34375 -8.597656 3.359375 -7.648438 3.390625 -6.703125 C 3.421875 -5.753906 3.46875 -4.765625 3.53125 -3.734375 C 3.570312 -3.359375 3.660156 -3.03125 3.796875 -2.75 C 3.941406 -2.46875 4.117188 -2.234375 4.328125 -2.046875 C 4.535156 -1.859375 4.773438 -1.71875 5.046875 -1.625 C 5.316406 -1.53125 5.597656 -1.484375 5.890625 -1.484375 C 6.066406 -1.484375 6.1875 -1.425781 6.25 -1.3125 C 6.3125 -1.195312 6.34375 -1.019531 6.34375 -0.78125 L 6.34375 -0.6875 C 6.34375 -0.414062 6.269531 -0.234375 6.125 -0.140625 C 5.976562 -0.046875 5.785156 0 5.546875 0 C 4.910156 0 4.335938 -0.15625 3.828125 -0.46875 C 3.328125 -0.78125 2.972656 -1.320312 2.765625 -2.09375 Z M 2.765625 -2.09375 "/></g></g><g style="fill:#ffffff;fill-opacity:1;"><g transform="translate(39.482486, 34.179887)"><path style="stroke:none" d="M 2.046875 -11.0625 C 1.921875 -11.1875 1.820312 -11.316406 1.75 -11.453125 C 1.6875 -11.597656 1.65625 -11.765625 1.65625 -11.953125 C 1.65625 -12.171875 1.710938 -12.453125 1.828125 -12.796875 C 1.941406 -13.140625 2.101562 -13.425781 2.3125 -13.65625 C 2.34375 -13.351562 2.40625 -13.101562 2.5 -12.90625 C 2.59375 -12.707031 2.707031 -12.535156 2.84375 -12.390625 C 2.988281 -12.253906 3.15625 -12.140625 3.34375 -12.046875 C 3.539062 -11.953125 3.757812 -11.859375 4 -11.765625 L 3.359375 -10.328125 C 3.390625 -9.390625 3.414062 -8.59375 3.4375 -7.9375 C 3.46875 -7.289062 3.488281 -6.75 3.5 -6.3125 C 3.519531 -5.882812 3.53125 -5.546875 3.53125 -5.296875 C 3.539062 -5.046875 3.550781 -4.859375 3.5625 -4.734375 C 3.570312 -4.617188 3.578125 -4.539062 3.578125 -4.5 C 3.578125 -4.457031 3.578125 -4.429688 3.578125 -4.421875 C 3.578125 -3.898438 3.484375 -3.375 3.296875 -2.84375 C 3.117188 -2.320312 2.863281 -1.847656 2.53125 -1.421875 C 2.207031 -1.003906 1.8125 -0.660156 1.34375 -0.390625 C 0.882812 -0.128906 0.378906 0 -0.171875 0 C -0.296875 0 -0.40625 -0.0507812 -0.5 -0.15625 C -0.59375 -0.257812 -0.640625 -0.429688 -0.640625 -0.671875 L -0.640625 -0.78125 C -0.640625 -1.019531 -0.5625 -1.195312 -0.40625 -1.3125 C -0.25 -1.425781 -0.0546875 -1.484375 0.171875 -1.484375 C 0.648438 -1.484375 1.046875 -1.507812 1.359375 -1.5625 C 1.671875 -1.625 1.914062 -1.726562 2.09375 -1.875 C 2.269531 -2.019531 2.390625 -2.222656 2.453125 -2.484375 C 2.515625 -2.742188 2.546875 -3.070312 2.546875 -3.46875 C 2.546875 -3.800781 2.535156 -4.210938 2.515625 -4.703125 C 2.492188 -5.191406 2.460938 -5.707031 2.421875 -6.25 C 2.390625 -6.789062 2.351562 -7.328125 2.3125 -7.859375 C 2.28125 -8.398438 2.242188 -8.894531 2.203125 -9.34375 C 2.160156 -9.800781 2.125 -10.1875 2.09375 -10.5 C 2.070312 -10.8125 2.054688 -11 2.046875 -11.0625 Z M 2.046875 -11.0625 "/></g></g><g style="fill:#ffffff;fill-opacity:1;"><g transform="translate(44.427027, 34.179887)"><path style="stroke:none" d="M 2.234375 -12.625 L 2.28125 -12.609375 C 2.320312 -12.421875 2.359375 -12.125 2.390625 -11.71875 C 2.429688 -11.320312 2.46875 -10.851562 2.5 -10.3125 C 2.53125 -9.769531 2.5625 -9.179688 2.59375 -8.546875 C 2.632812 -7.910156 2.664062 -7.265625 2.6875 -6.609375 C 2.71875 -5.960938 2.738281 -5.328125 2.75 -4.703125 C 2.757812 -4.078125 2.765625 -3.503906 2.765625 -2.984375 C 2.765625 -2.660156 2.75 -2.367188 2.71875 -2.109375 C 2.6875 -1.859375 2.632812 -1.613281 2.5625 -1.375 C 2.488281 -1.132812 2.378906 -0.882812 2.234375 -0.625 C 2.085938 -0.375 1.910156 -0.0859375 1.703125 0.234375 L 1.640625 0.234375 L 1.546875 0.15625 C 1.609375 -0.144531 1.644531 -0.625 1.65625 -1.28125 C 1.675781 -1.9375 1.6875 -2.722656 1.6875 -3.640625 C 1.6875 -4.148438 1.675781 -4.734375 1.65625 -5.390625 C 1.632812 -6.046875 1.601562 -6.703125 1.5625 -7.359375 C 1.53125 -8.023438 1.488281 -8.660156 1.4375 -9.265625 C 1.382812 -9.867188 1.328125 -10.375 1.265625 -10.78125 C 1.253906 -10.820312 1.25 -10.867188 1.25 -10.921875 C 1.25 -10.984375 1.25 -11.023438 1.25 -11.046875 C 1.25 -11.140625 1.257812 -11.234375 1.28125 -11.328125 C 1.300781 -11.421875 1.34375 -11.503906 1.40625 -11.578125 Z M 2.234375 -12.625 "/></g></g><g style="fill:#ffffff;fill-opacity:1;"><g transform="translate(48.386184, 34.179887)"><path style="stroke:none" d="M 6.75 -1.484375 C 6.925781 -1.484375 7.046875 -1.425781 7.109375 -1.3125 C 7.179688 -1.195312 7.21875 -1.019531 7.21875 -0.78125 L 7.21875 -0.6875 C 7.21875 -0.414062 7.144531 -0.234375 7 -0.140625 C 6.851562 -0.046875 6.65625 0 6.40625 0 C 5.988281 0 5.632812 -0.0507812 5.34375 -0.15625 C 5.0625 -0.257812 4.820312 -0.40625 4.625 -0.59375 C 4.4375 -0.78125 4.285156 -1.003906 4.171875 -1.265625 C 4.066406 -1.535156 3.984375 -1.828125 3.921875 -2.140625 C 3.859375 -2.085938 3.769531 -2.015625 3.65625 -1.921875 C 3.550781 -1.835938 3.4375 -1.75 3.3125 -1.65625 C 3.1875 -1.5625 3.0625 -1.472656 2.9375 -1.390625 C 2.8125 -1.304688 2.703125 -1.242188 2.609375 -1.203125 C 2.535156 -1.160156 2.429688 -1.125 2.296875 -1.09375 C 2.171875 -1.070312 2.046875 -1.0625 1.921875 -1.0625 C 1.347656 -1.0625 0.882812 -1.1875 0.53125 -1.4375 C 0.175781 -1.695312 0 -2.035156 0 -2.453125 C 0 -3.222656 0.269531 -3.9375 0.8125 -4.59375 C 1.351562 -5.257812 2.191406 -5.914062 3.328125 -6.5625 C 3.316406 -6.6875 3.289062 -6.832031 3.25 -7 C 3.207031 -7.164062 3.175781 -7.3125 3.15625 -7.4375 L 4.171875 -8.0625 L 4.21875 -8.015625 C 4.300781 -6.566406 4.390625 -5.410156 4.484375 -4.546875 C 4.585938 -3.679688 4.726562 -3.019531 4.90625 -2.5625 C 5.082031 -2.101562 5.316406 -1.804688 5.609375 -1.671875 C 5.898438 -1.546875 6.28125 -1.484375 6.75 -1.484375 Z M 3.875 -2.5 C 3.789062 -2.875 3.71875 -3.289062 3.65625 -3.75 C 3.601562 -4.207031 3.539062 -4.734375 3.46875 -5.328125 C 2.582031 -4.960938 1.894531 -4.582031 1.40625 -4.1875 C 0.914062 -3.789062 0.671875 -3.4375 0.671875 -3.125 C 0.671875 -3.070312 0.703125 -3 0.765625 -2.90625 C 0.828125 -2.820312 0.941406 -2.734375 1.109375 -2.640625 C 1.273438 -2.554688 1.492188 -2.484375 1.765625 -2.421875 C 2.046875 -2.367188 2.398438 -2.34375 2.828125 -2.34375 C 3.109375 -2.34375 3.328125 -2.351562 3.484375 -2.375 C 3.648438 -2.40625 3.78125 -2.445312 3.875 -2.5 Z M 1.578125 -12.078125 C 1.691406 -12.015625 1.851562 -11.890625 2.0625 -11.703125 C 2.269531 -11.515625 2.4375 -11.332031 2.5625 -11.15625 L 2.5625 -11.09375 C 2.488281 -11.03125 2.410156 -10.953125 2.328125 -10.859375 C 2.242188 -10.773438 2.15625 -10.6875 2.0625 -10.59375 C 1.96875 -10.5 1.878906 -10.40625 1.796875 -10.3125 C 1.710938 -10.226562 1.644531 -10.164062 1.59375 -10.125 L 1.53125 -10.125 C 1.425781 -10.257812 1.285156 -10.414062 1.109375 -10.59375 C 0.929688 -10.769531 0.75 -10.90625 0.5625 -11 L 0.5625 -11.078125 C 0.5625 -11.085938 0.609375 -11.144531 0.703125 -11.25 C 0.796875 -11.363281 0.898438 -11.476562 1.015625 -11.59375 C 1.128906 -11.71875 1.238281 -11.828125 1.34375 -11.921875 C 1.445312 -12.023438 1.503906 -12.078125 1.515625 -12.078125 Z M 3.75 -12.078125 C 3.863281 -12.015625 4.019531 -11.890625 4.21875 -11.703125 C 4.425781 -11.515625 4.597656 -11.332031 4.734375 -11.15625 L 4.734375 -11.09375 C 4.660156 -11.03125 4.578125 -10.953125 4.484375 -10.859375 C 4.398438 -10.773438 4.3125 -10.6875 4.21875 -10.59375 C 4.125 -10.5 4.035156 -10.40625 3.953125 -10.3125 C 3.867188 -10.226562 3.804688 -10.164062 3.765625 -10.125 L 3.6875 -10.125 C 3.582031 -10.257812 3.441406 -10.414062 3.265625 -10.59375 C 3.085938 -10.769531 2.90625 -10.90625 2.71875 -11 L 2.71875 -11.078125 C 2.71875 -11.085938 2.765625 -11.144531 2.859375 -11.25 C 2.953125 -11.363281 3.054688 -11.476562 3.171875 -11.59375 C 3.296875 -11.71875 3.40625 -11.828125 3.5 -11.921875 C 3.601562 -12.023438 3.660156 -12.078125 3.671875 -12.078125 Z M 3.75 -12.078125 "/></g></g><g style="fill:#ffffff;fill-opacity:1;"><g transform="translate(54.967175, 34.179887)"><path style="stroke:none" d="M -0.171875 0 C -0.296875 0 -0.40625 -0.0507812 -0.5 -0.15625 C -0.59375 -0.257812 -0.640625 -0.429688 -0.640625 -0.671875 L -0.640625 -0.78125 C -0.640625 -1.019531 -0.5625 -1.195312 -0.40625 -1.3125 C -0.25 -1.425781 -0.0546875 -1.484375 0.171875 -1.484375 C 0.578125 -1.484375 0.945312 -1.492188 1.28125 -1.515625 C 1.613281 -1.535156 2.019531 -1.585938 2.5 -1.671875 C 2.300781 -1.921875 2.144531 -2.222656 2.03125 -2.578125 C 1.925781 -2.929688 1.875 -3.234375 1.875 -3.484375 C 1.875 -3.960938 1.960938 -4.4375 2.140625 -4.90625 C 2.328125 -5.375 2.554688 -5.789062 2.828125 -6.15625 C 3.097656 -6.53125 3.394531 -6.832031 3.71875 -7.0625 C 4.050781 -7.289062 4.363281 -7.40625 4.65625 -7.40625 C 4.863281 -7.40625 5.070312 -7.335938 5.28125 -7.203125 C 5.5 -7.078125 5.695312 -6.898438 5.875 -6.671875 C 6.0625 -6.453125 6.210938 -6.195312 6.328125 -5.90625 C 6.453125 -5.625 6.515625 -5.328125 6.515625 -5.015625 C 6.515625 -4.867188 6.476562 -4.660156 6.40625 -4.390625 C 6.34375 -4.128906 6.25 -3.84375 6.125 -3.53125 C 6.007812 -3.21875 5.859375 -2.90625 5.671875 -2.59375 C 5.492188 -2.289062 5.28125 -2.03125 5.03125 -1.8125 C 5.414062 -1.707031 5.84375 -1.625 6.3125 -1.5625 C 6.78125 -1.507812 7.332031 -1.484375 7.96875 -1.484375 C 8.144531 -1.484375 8.265625 -1.425781 8.328125 -1.3125 C 8.390625 -1.195312 8.421875 -1.019531 8.421875 -0.78125 L 8.421875 -0.6875 C 8.421875 -0.414062 8.347656 -0.234375 8.203125 -0.140625 C 8.054688 -0.046875 7.863281 0 7.625 0 C 6.832031 0 6.085938 -0.0625 5.390625 -0.1875 C 4.691406 -0.320312 4.078125 -0.535156 3.546875 -0.828125 C 3.285156 -0.703125 3.023438 -0.582031 2.765625 -0.46875 C 2.503906 -0.363281 2.226562 -0.273438 1.9375 -0.203125 C 1.65625 -0.140625 1.335938 -0.0859375 0.984375 -0.046875 C 0.640625 -0.015625 0.253906 0 -0.171875 0 Z M 2.59375 -3.796875 C 2.59375 -3.484375 2.722656 -3.179688 2.984375 -2.890625 C 3.253906 -2.609375 3.640625 -2.359375 4.140625 -2.140625 C 4.367188 -2.253906 4.578125 -2.40625 4.765625 -2.59375 C 4.960938 -2.78125 5.128906 -2.976562 5.265625 -3.1875 C 5.398438 -3.394531 5.503906 -3.597656 5.578125 -3.796875 C 5.660156 -3.992188 5.703125 -4.164062 5.703125 -4.3125 C 5.703125 -4.445312 5.660156 -4.601562 5.578125 -4.78125 C 5.503906 -4.957031 5.40625 -5.128906 5.28125 -5.296875 C 5.164062 -5.460938 5.023438 -5.597656 4.859375 -5.703125 C 4.703125 -5.816406 4.539062 -5.875 4.375 -5.875 C 4.175781 -5.875 3.972656 -5.804688 3.765625 -5.671875 C 3.554688 -5.535156 3.363281 -5.363281 3.1875 -5.15625 C 3.007812 -4.945312 2.863281 -4.71875 2.75 -4.46875 C 2.644531 -4.226562 2.59375 -4.003906 2.59375 -3.796875 Z M 3.53125 -12.078125 C 3.644531 -12.015625 3.804688 -11.890625 4.015625 -11.703125 C 4.222656 -11.515625 4.390625 -11.332031 4.515625 -11.15625 L 4.515625 -11.09375 C 4.441406 -11.03125 4.363281 -10.953125 4.28125 -10.859375 C 4.195312 -10.773438 4.109375 -10.6875 4.015625 -10.59375 C 3.921875 -10.5 3.832031 -10.40625 3.75 -10.3125 C 3.664062 -10.226562 3.597656 -10.164062 3.546875 -10.125 L 3.484375 -10.125 C 3.378906 -10.257812 3.238281 -10.414062 3.0625 -10.59375 C 2.882812 -10.769531 2.703125 -10.90625 2.515625 -11 L 2.515625 -11.078125 C 2.515625 -11.085938 2.5625 -11.144531 2.65625 -11.25 C 2.75 -11.363281 2.851562 -11.476562 2.96875 -11.59375 C 3.082031 -11.71875 3.191406 -11.828125 3.296875 -11.921875 C 3.398438 -12.023438 3.457031 -12.078125 3.46875 -12.078125 Z M 5.703125 -12.078125 C 5.816406 -12.015625 5.972656 -11.890625 6.171875 -11.703125 C 6.378906 -11.515625 6.550781 -11.332031 6.6875 -11.15625 L 6.6875 -11.09375 C 6.613281 -11.03125 6.53125 -10.953125 6.4375 -10.859375 C 6.351562 -10.773438 6.265625 -10.6875 6.171875 -10.59375 C 6.078125 -10.5 5.988281 -10.40625 5.90625 -10.3125 C 5.820312 -10.226562 5.757812 -10.164062 5.71875 -10.125 L 5.640625 -10.125 C 5.535156 -10.257812 5.394531 -10.414062 5.21875 -10.59375 C 5.039062 -10.769531 4.859375 -10.90625 4.671875 -11 L 4.671875 -11.078125 C 4.671875 -11.085938 4.71875 -11.144531 4.8125 -11.25 C 4.90625 -11.363281 5.007812 -11.476562 5.125 -11.59375 C 5.25 -11.71875 5.359375 -11.828125 5.453125 -11.921875 C 5.554688 -12.023438 5.613281 -12.078125 5.625 -12.078125 Z M 5.703125 -12.078125 "/></g></g><g style="fill:#ffffff;fill-opacity:1;"><g transform="translate(62.762313, 34.179887)"><path style="stroke:none" d="M -0.640625 -0.78125 C -0.640625 -1.019531 -0.5625 -1.195312 -0.40625 -1.3125 C -0.25 -1.425781 -0.0546875 -1.484375 0.171875 -1.484375 C 0.953125 -1.484375 1.519531 -1.578125 1.875 -1.765625 C 2.238281 -1.953125 2.421875 -2.195312 2.421875 -2.5 C 2.421875 -2.675781 2.367188 -2.910156 2.265625 -3.203125 C 2.171875 -3.503906 1.9375 -3.890625 1.5625 -4.359375 C 1.488281 -4.441406 1.453125 -4.539062 1.453125 -4.65625 C 1.453125 -4.769531 1.476562 -4.863281 1.53125 -4.9375 L 2.21875 -6.265625 L 2.28125 -6.265625 C 2.582031 -5.722656 2.800781 -5.175781 2.9375 -4.625 C 3.082031 -4.082031 3.15625 -3.578125 3.15625 -3.109375 C 3.15625 -2.859375 3.117188 -2.609375 3.046875 -2.359375 C 2.972656 -2.109375 2.882812 -1.878906 2.78125 -1.671875 C 2.675781 -1.460938 2.5625 -1.273438 2.4375 -1.109375 C 2.3125 -0.941406 2.195312 -0.8125 2.09375 -0.71875 C 1.84375 -0.488281 1.539062 -0.3125 1.1875 -0.1875 C 0.84375 -0.0625 0.390625 0 -0.171875 0 C -0.296875 0 -0.40625 -0.0507812 -0.5 -0.15625 C -0.59375 -0.257812 -0.640625 -0.429688 -0.640625 -0.671875 Z M 1.59375 -10.3125 C 1.707031 -10.25 1.867188 -10.125 2.078125 -9.9375 C 2.285156 -9.75 2.453125 -9.566406 2.578125 -9.390625 L 2.578125 -9.328125 C 2.503906 -9.265625 2.425781 -9.1875 2.34375 -9.09375 C 2.257812 -9.007812 2.171875 -8.921875 2.078125 -8.828125 C 1.984375 -8.734375 1.894531 -8.640625 1.8125 -8.546875 C 1.726562 -8.460938 1.660156 -8.398438 1.609375 -8.359375 L 1.546875 -8.359375 C 1.441406 -8.492188 1.300781 -8.648438 1.125 -8.828125 C 0.945312 -9.003906 0.765625 -9.140625 0.578125 -9.234375 L 0.578125 -9.3125 C 0.578125 -9.320312 0.625 -9.378906 0.71875 -9.484375 C 0.8125 -9.597656 0.914062 -9.710938 1.03125 -9.828125 C 1.144531 -9.953125 1.253906 -10.0625 1.359375 -10.15625 C 1.460938 -10.257812 1.519531 -10.3125 1.53125 -10.3125 Z M 1.59375 -10.3125 "/></g></g><g style="fill:#ffffff;fill-opacity:1;"><g transform="translate(67.143774, 34.179887)"><path style="stroke:none" d="M 2.609375 -11.15625 C 2.628906 -10.6875 2.644531 -10.148438 2.65625 -9.546875 C 2.664062 -8.941406 2.671875 -8.304688 2.671875 -7.640625 C 2.671875 -7.253906 2.671875 -6.859375 2.671875 -6.453125 C 2.671875 -6.054688 2.660156 -5.664062 2.640625 -5.28125 C 2.628906 -5.132812 2.625 -5 2.625 -4.875 C 2.625 -4.75 2.625 -4.617188 2.625 -4.484375 C 2.625 -4.003906 2.648438 -3.578125 2.703125 -3.203125 C 2.765625 -2.828125 2.867188 -2.507812 3.015625 -2.25 C 3.171875 -1.988281 3.382812 -1.796875 3.65625 -1.671875 C 3.925781 -1.546875 4.273438 -1.484375 4.703125 -1.484375 C 4.878906 -1.484375 5 -1.425781 5.0625 -1.3125 C 5.125 -1.195312 5.15625 -1.019531 5.15625 -0.78125 L 5.15625 -0.6875 C 5.15625 -0.414062 5.082031 -0.234375 4.9375 -0.140625 C 4.789062 -0.046875 4.59375 0 4.34375 0 C 3.757812 0 3.289062 -0.0820312 2.9375 -0.25 C 2.582031 -0.414062 2.3125 -0.644531 2.125 -0.9375 C 1.945312 -1.226562 1.832031 -1.5625 1.78125 -1.9375 C 1.726562 -2.320312 1.703125 -2.738281 1.703125 -3.1875 L 1.703125 -5.984375 C 1.703125 -6.523438 1.691406 -7.085938 1.671875 -7.671875 C 1.660156 -8.265625 1.632812 -8.828125 1.59375 -9.359375 C 1.550781 -9.890625 1.5 -10.351562 1.4375 -10.75 C 1.382812 -11.144531 1.316406 -11.421875 1.234375 -11.578125 C 1.328125 -11.660156 1.425781 -11.757812 1.53125 -11.875 C 1.632812 -12 1.734375 -12.117188 1.828125 -12.234375 C 1.929688 -12.359375 2.019531 -12.46875 2.09375 -12.5625 C 2.175781 -12.664062 2.234375 -12.734375 2.265625 -12.765625 C 2.304688 -12.804688 2.347656 -12.828125 2.390625 -12.828125 C 2.441406 -12.828125 2.476562 -12.804688 2.5 -12.765625 C 2.53125 -12.734375 2.546875 -12.703125 2.546875 -12.671875 Z M 2.609375 -11.15625 "/></g></g><g style="fill:#ffffff;fill-opacity:1;"><g transform="translate(71.666011, 34.179887)"><path style="stroke:none" d="M 1.34375 -4.421875 C 1.507812 -4.609375 1.660156 -4.820312 1.796875 -5.0625 C 1.929688 -5.3125 2.066406 -5.535156 2.203125 -5.734375 C 2.285156 -5.878906 2.5625 -5.953125 3.03125 -5.953125 C 3.375 -5.953125 3.78125 -5.875 4.25 -5.71875 C 4.726562 -5.5625 5.234375 -5.390625 5.765625 -5.203125 C 6.296875 -5.023438 6.835938 -4.859375 7.390625 -4.703125 C 7.953125 -4.554688 8.5 -4.484375 9.03125 -4.484375 C 9.1875 -4.484375 9.378906 -4.488281 9.609375 -4.5 C 9.847656 -4.507812 10.054688 -4.53125 10.234375 -4.5625 L 10.28125 -4.5 C 10.226562 -4.414062 10.171875 -4.316406 10.109375 -4.203125 C 10.046875 -4.097656 9.984375 -3.988281 9.921875 -3.875 C 9.859375 -3.769531 9.800781 -3.660156 9.75 -3.546875 C 9.707031 -3.441406 9.679688 -3.359375 9.671875 -3.296875 C 9.285156 -3.296875 8.9375 -3.273438 8.625 -3.234375 C 8.3125 -3.203125 8.019531 -3.144531 7.75 -3.0625 C 7.488281 -2.976562 7.222656 -2.863281 6.953125 -2.71875 C 6.679688 -2.582031 6.394531 -2.410156 6.09375 -2.203125 C 5.644531 -1.878906 5.210938 -1.582031 4.796875 -1.3125 C 4.390625 -1.050781 3.953125 -0.820312 3.484375 -0.625 C 3.015625 -0.425781 2.484375 -0.269531 1.890625 -0.15625 C 1.304688 -0.0507812 0.617188 0 -0.171875 0 C -0.296875 0 -0.40625 -0.0507812 -0.5 -0.15625 C -0.59375 -0.257812 -0.640625 -0.429688 -0.640625 -0.671875 L -0.640625 -0.78125 C -0.640625 -1.019531 -0.5625 -1.195312 -0.40625 -1.3125 C -0.257812 -1.425781 -0.0703125 -1.484375 0.15625 -1.484375 C 1.113281 -1.492188 1.894531 -1.570312 2.5 -1.71875 C 3.101562 -1.863281 3.617188 -2.039062 4.046875 -2.25 C 4.484375 -2.457031 4.867188 -2.679688 5.203125 -2.921875 C 5.535156 -3.171875 5.910156 -3.398438 6.328125 -3.609375 C 6.054688 -3.710938 5.765625 -3.816406 5.453125 -3.921875 C 5.148438 -4.035156 4.84375 -4.132812 4.53125 -4.21875 C 4.226562 -4.3125 3.941406 -4.390625 3.671875 -4.453125 C 3.398438 -4.515625 3.171875 -4.546875 2.984375 -4.546875 C 2.546875 -4.546875 2.210938 -4.523438 1.984375 -4.484375 C 1.753906 -4.453125 1.5625 -4.398438 1.40625 -4.328125 Z M 4.390625 -10.3125 C 4.503906 -10.25 4.664062 -10.125 4.875 -9.9375 C 5.082031 -9.75 5.25 -9.566406 5.375 -9.390625 L 5.375 -9.328125 C 5.300781 -9.265625 5.222656 -9.1875 5.140625 -9.09375 C 5.054688 -9.007812 4.96875 -8.921875 4.875 -8.828125 C 4.78125 -8.734375 4.691406 -8.640625 4.609375 -8.546875 C 4.523438 -8.460938 4.457031 -8.398438 4.40625 -8.359375 L 4.34375 -8.359375 C 4.238281 -8.492188 4.097656 -8.648438 3.921875 -8.828125 C 3.742188 -9.003906 3.5625 -9.140625 3.375 -9.234375 L 3.375 -9.3125 C 3.375 -9.320312 3.421875 -9.378906 3.515625 -9.484375 C 3.609375 -9.597656 3.710938 -9.710938 3.828125 -9.828125 C 3.941406 -9.953125 4.050781 -10.0625 4.15625 -10.15625 C 4.257812 -10.257812 4.316406 -10.3125 4.328125 -10.3125 Z M 4.390625 -10.3125 "/></g></g><g style="fill:#ffffff;fill-opacity:1;"><g transform="translate(82.330262, 34.179887)"><path style="stroke:none" d=""/></g></g><g style="fill:#ffffff;fill-opacity:1;"><g transform="translate(40.393281, 67.11133)"><path style="stroke:none" d="M 11.609375 -15.40625 C 11.691406 -15.53125 11.734375 -15.617188 11.734375 -15.671875 C 11.734375 -15.785156 11.691406 -15.867188 11.609375 -15.921875 L 11.609375 -16.40625 L 11.703125 -16.5 C 11.878906 -16.476562 12.125 -16.460938 12.4375 -16.453125 C 12.757812 -16.453125 13.0625 -16.453125 13.34375 -16.453125 C 13.601562 -16.453125 13.953125 -16.453125 14.390625 -16.453125 C 14.828125 -16.460938 15.191406 -16.484375 15.484375 -16.515625 L 15.578125 -16.453125 L 15.578125 -15.921875 L 15.5 -15.84375 C 15.207031 -15.8125 14.925781 -15.769531 14.65625 -15.71875 C 14.394531 -15.675781 14.191406 -15.613281 14.046875 -15.53125 C 13.765625 -15.4375 13.378906 -15.203125 12.890625 -14.828125 C 12.410156 -14.453125 11.796875 -13.894531 11.046875 -13.15625 L 7.25 -9.34375 L 13.828125 -2.421875 C 14.410156 -1.773438 14.910156 -1.3125 15.328125 -1.03125 C 15.753906 -0.757812 16.25 -0.625 16.8125 -0.625 L 16.890625 -0.53125 L 16.890625 -0.046875 L 16.8125 0.046875 C 16.425781 0.0351562 16.070312 0.0234375 15.75 0.015625 C 15.425781 0.00390625 15.144531 0 14.90625 0 C 14.769531 0 14.523438 0 14.171875 0 C 13.816406 0 13.445312 0.015625 13.0625 0.046875 C 12.757812 -0.304688 12.460938 -0.628906 12.171875 -0.921875 C 11.890625 -1.222656 11.601562 -1.53125 11.3125 -1.84375 L 4.984375 -8.21875 L 4.984375 -5.53125 C 4.984375 -4.632812 4.984375 -3.910156 4.984375 -3.359375 C 4.984375 -2.816406 4.988281 -2.382812 5 -2.0625 C 5.019531 -1.75 5.050781 -1.519531 5.09375 -1.375 C 5.132812 -1.226562 5.1875 -1.109375 5.25 -1.015625 C 5.332031 -0.929688 5.472656 -0.859375 5.671875 -0.796875 C 5.867188 -0.734375 6.226562 -0.6875 6.75 -0.65625 L 6.84375 -0.578125 L 6.84375 0.03125 L 6.75 0.09375 C 6.4375 0.0820312 6.128906 0.0664062 5.828125 0.046875 C 5.523438 0.0351562 5.238281 0.0234375 4.96875 0.015625 C 4.707031 0.00390625 4.476562 0 4.28125 0 C 4.082031 0 3.945312 0 3.875 0 C 3.789062 0 3.65625 0 3.46875 0 C 3.28125 0 3.050781 0.00390625 2.78125 0.015625 C 2.519531 0.0234375 2.234375 0.0351562 1.921875 0.046875 C 1.617188 0.0664062 1.316406 0.0820312 1.015625 0.09375 L 0.921875 0.03125 L 0.921875 -0.578125 L 1.015625 -0.65625 C 1.535156 -0.6875 1.890625 -0.734375 2.078125 -0.796875 C 2.273438 -0.859375 2.410156 -0.929688 2.484375 -1.015625 C 2.554688 -1.109375 2.609375 -1.226562 2.640625 -1.375 C 2.679688 -1.519531 2.707031 -1.75 2.71875 -2.0625 C 2.738281 -2.382812 2.75 -2.8125 2.75 -3.34375 C 2.75 -3.882812 2.75 -4.609375 2.75 -5.515625 L 2.75 -10.9375 C 2.75 -11.820312 2.75 -12.539062 2.75 -13.09375 C 2.75 -13.65625 2.738281 -14.09375 2.71875 -14.40625 C 2.707031 -14.71875 2.679688 -14.945312 2.640625 -15.09375 C 2.609375 -15.238281 2.554688 -15.351562 2.484375 -15.4375 C 2.410156 -15.507812 2.273438 -15.578125 2.078125 -15.640625 C 1.890625 -15.710938 1.535156 -15.765625 1.015625 -15.796875 L 0.921875 -15.859375 L 0.921875 -16.46875 L 1.015625 -16.546875 C 1.316406 -16.523438 1.617188 -16.503906 1.921875 -16.484375 C 2.234375 -16.472656 2.519531 -16.460938 2.78125 -16.453125 C 3.050781 -16.453125 3.28125 -16.453125 3.46875 -16.453125 C 3.664062 -16.453125 3.804688 -16.453125 3.890625 -16.453125 C 3.953125 -16.453125 4.082031 -16.453125 4.28125 -16.453125 C 4.476562 -16.453125 4.707031 -16.453125 4.96875 -16.453125 C 5.238281 -16.460938 5.523438 -16.472656 5.828125 -16.484375 C 6.128906 -16.503906 6.4375 -16.523438 6.75 -16.546875 L 6.84375 -16.46875 L 6.84375 -15.859375 L 6.75 -15.796875 C 6.226562 -15.765625 5.867188 -15.710938 5.671875 -15.640625 C 5.472656 -15.578125 5.332031 -15.507812 5.25 -15.4375 C 5.1875 -15.351562 5.132812 -15.238281 5.09375 -15.09375 C 5.050781 -14.945312 5.019531 -14.71875 5 -14.40625 C 4.988281 -14.09375 4.984375 -13.65625 4.984375 -13.09375 C 4.984375 -12.539062 4.984375 -11.820312 4.984375 -10.9375 L 4.984375 -8.484375 C 5.742188 -9.160156 6.476562 -9.847656 7.1875 -10.546875 C 7.894531 -11.253906 8.546875 -11.921875 9.140625 -12.546875 C 9.734375 -13.179688 10.242188 -13.75 10.671875 -14.25 C 11.097656 -14.75 11.410156 -15.132812 11.609375 -15.40625 Z M 11.609375 -15.40625 "/></g></g><g style="fill:#ffffff;fill-opacity:1;"><g transform="translate(56.981727, 67.11133)"><path style="stroke:none" d="M 14.5625 -8.203125 C 14.238281 -8.210938 13.847656 -8.222656 13.390625 -8.234375 C 12.929688 -8.242188 12.46875 -8.25 12 -8.25 C 11.53125 -8.25 11.085938 -8.25 10.671875 -8.25 C 10.265625 -8.25 9.945312 -8.25 9.71875 -8.25 C 9.476562 -8.25 9.171875 -8.25 8.796875 -8.25 C 8.429688 -8.25 8.03125 -8.242188 7.59375 -8.234375 C 7.15625 -8.222656 6.710938 -8.210938 6.265625 -8.203125 C 5.816406 -8.203125 5.390625 -8.191406 4.984375 -8.171875 L 4.984375 -5.53125 C 4.984375 -4.632812 4.984375 -3.910156 4.984375 -3.359375 C 4.984375 -2.816406 4.988281 -2.382812 5 -2.0625 C 5.019531 -1.75 5.050781 -1.519531 5.09375 -1.375 C 5.132812 -1.226562 5.1875 -1.109375 5.25 -1.015625 C 5.332031 -0.929688 5.472656 -0.859375 5.671875 -0.796875 C 5.867188 -0.734375 6.226562 -0.6875 6.75 -0.65625 L 6.84375 -0.578125 L 6.84375 0.03125 L 6.75 0.09375 C 6.4375 0.0820312 6.128906 0.0664062 5.828125 0.046875 C 5.523438 0.0351562 5.238281 0.0234375 4.96875 0.015625 C 4.707031 0.00390625 4.476562 0 4.28125 0 C 4.082031 0 3.945312 0 3.875 0 C 3.789062 0 3.65625 0 3.46875 0 C 3.28125 0 3.050781 0.00390625 2.78125 0.015625 C 2.519531 0.0234375 2.234375 0.0351562 1.921875 0.046875 C 1.617188 0.0664062 1.316406 0.0820312 1.015625 0.09375 L 0.921875 0.03125 L 0.921875 -0.578125 L 1.015625 -0.65625 C 1.535156 -0.6875 1.890625 -0.734375 2.078125 -0.796875 C 2.273438 -0.859375 2.410156 -0.929688 2.484375 -1.015625 C 2.554688 -1.109375 2.609375 -1.226562 2.640625 -1.375 C 2.679688 -1.519531 2.707031 -1.75 2.71875 -2.0625 C 2.738281 -2.382812 2.75 -2.8125 2.75 -3.34375 C 2.75 -3.882812 2.75 -4.609375 2.75 -5.515625 L 2.75 -10.9375 C 2.75 -11.820312 2.75 -12.539062 2.75 -13.09375 C 2.75 -13.65625 2.738281 -14.09375 2.71875 -14.40625 C 2.707031 -14.71875 2.679688 -14.945312 2.640625 -15.09375 C 2.609375 -15.238281 2.554688 -15.351562 2.484375 -15.4375 C 2.410156 -15.507812 2.273438 -15.578125 2.078125 -15.640625 C 1.890625 -15.710938 1.535156 -15.765625 1.015625 -15.796875 L 0.921875 -15.859375 L 0.921875 -16.46875 L 1.015625 -16.546875 C 1.316406 -16.523438 1.617188 -16.503906 1.921875 -16.484375 C 2.234375 -16.472656 2.519531 -16.460938 2.78125 -16.453125 C 3.050781 -16.453125 3.28125 -16.453125 3.46875 -16.453125 C 3.664062 -16.453125 3.804688 -16.453125 3.890625 -16.453125 C 3.953125 -16.453125 4.082031 -16.453125 4.28125 -16.453125 C 4.476562 -16.453125 4.707031 -16.453125 4.96875 -16.453125 C 5.238281 -16.460938 5.523438 -16.472656 5.828125 -16.484375 C 6.128906 -16.503906 6.4375 -16.523438 6.75 -16.546875 L 6.84375 -16.46875 L 6.84375 -15.859375 L 6.75 -15.796875 C 6.226562 -15.765625 5.867188 -15.710938 5.671875 -15.640625 C 5.472656 -15.578125 5.332031 -15.507812 5.25 -15.4375 C 5.1875 -15.351562 5.132812 -15.238281 5.09375 -15.09375 C 5.050781 -14.945312 5.019531 -14.71875 5 -14.40625 C 4.988281 -14.09375 4.984375 -13.65625 4.984375 -13.09375 C 4.984375 -12.539062 4.984375 -11.820312 4.984375 -10.9375 L 4.984375 -9.3125 C 6.671875 -9.257812 8.273438 -9.234375 9.796875 -9.234375 C 10.804688 -9.234375 11.710938 -9.238281 12.515625 -9.25 C 13.328125 -9.257812 14.007812 -9.28125 14.5625 -9.3125 L 14.5625 -10.9375 C 14.5625 -11.820312 14.5625 -12.539062 14.5625 -13.09375 C 14.5625 -13.65625 14.550781 -14.09375 14.53125 -14.40625 C 14.519531 -14.71875 14.492188 -14.945312 14.453125 -15.09375 C 14.410156 -15.238281 14.359375 -15.351562 14.296875 -15.4375 C 14.210938 -15.507812 14.066406 -15.578125 13.859375 -15.640625 C 13.660156 -15.710938 13.304688 -15.765625 12.796875 -15.796875 L 12.703125 -15.859375 L 12.703125 -16.46875 L 12.796875 -16.546875 C 13.097656 -16.523438 13.40625 -16.503906 13.71875 -16.484375 C 14.039062 -16.472656 14.332031 -16.460938 14.59375 -16.453125 C 14.863281 -16.453125 15.085938 -16.453125 15.265625 -16.453125 C 15.453125 -16.453125 15.585938 -16.453125 15.671875 -16.453125 C 15.734375 -16.453125 15.859375 -16.453125 16.046875 -16.453125 C 16.242188 -16.453125 16.476562 -16.453125 16.75 -16.453125 C 17.019531 -16.460938 17.304688 -16.472656 17.609375 -16.484375 C 17.910156 -16.503906 18.21875 -16.523438 18.53125 -16.546875 L 18.625 -16.46875 L 18.625 -15.859375 L 18.53125 -15.796875 C 18.007812 -15.765625 17.648438 -15.710938 17.453125 -15.640625 C 17.265625 -15.578125 17.128906 -15.507812 17.046875 -15.4375 C 16.984375 -15.351562 16.929688 -15.238281 16.890625 -15.09375 C 16.847656 -14.945312 16.816406 -14.71875 16.796875 -14.40625 C 16.785156 -14.09375 16.78125 -13.65625 16.78125 -13.09375 C 16.78125 -12.539062 16.78125 -11.820312 16.78125 -10.9375 L 16.78125 -5.53125 C 16.78125 -4.632812 16.78125 -3.910156 16.78125 -3.359375 C 16.78125 -2.816406 16.785156 -2.382812 16.796875 -2.0625 C 16.816406 -1.75 16.847656 -1.519531 16.890625 -1.375 C 16.929688 -1.226562 16.984375 -1.109375 17.046875 -1.015625 C 17.128906 -0.929688 17.265625 -0.859375 17.453125 -0.796875 C 17.648438 -0.734375 18.007812 -0.6875 18.53125 -0.65625 L 18.625 -0.578125 L 18.625 0.03125 L 18.53125 0.09375 C 18.21875 0.0820312 17.910156 0.0664062 17.609375 0.046875 C 17.304688 0.0351562 17.019531 0.0234375 16.75 0.015625 C 16.476562 0.00390625 16.242188 0 16.046875 0 C 15.859375 0 15.726562 0 15.65625 0 C 15.582031 0 15.445312 0 15.25 0 C 15.0625 0 14.835938 0.00390625 14.578125 0.015625 C 14.328125 0.0234375 14.039062 0.0351562 13.71875 0.046875 C 13.40625 0.0664062 13.097656 0.0820312 12.796875 0.09375 L 12.703125 0.03125 L 12.703125 -0.578125 L 12.796875 -0.65625 C 13.304688 -0.6875 13.660156 -0.734375 13.859375 -0.796875 C 14.066406 -0.859375 14.210938 -0.929688 14.296875 -1.015625 C 14.359375 -1.109375 14.410156 -1.226562 14.453125 -1.375 C 14.492188 -1.519531 14.519531 -1.75 14.53125 -2.0625 C 14.550781 -2.382812 14.5625 -2.8125 14.5625 -3.34375 C 14.5625 -3.882812 14.5625 -4.609375 14.5625 -5.515625 Z M 14.5625 -8.203125 "/></g></g><g style="fill:#ffffff;fill-opacity:1;"><g transform="translate(76.520309, 67.11133)"><path style="stroke:none" d="M 0.09375 0 L 0.09375 -0.5625 L 0.1875 -0.65625 C 0.414062 -0.6875 0.617188 -0.71875 0.796875 -0.75 C 0.972656 -0.78125 1.144531 -0.851562 1.3125 -0.96875 C 1.488281 -1.09375 1.660156 -1.28125 1.828125 -1.53125 C 1.992188 -1.78125 2.191406 -2.132812 2.421875 -2.59375 L 7.15625 -12.390625 C 7.539062 -13.171875 7.914062 -13.925781 8.28125 -14.65625 C 8.644531 -15.382812 9 -16.109375 9.34375 -16.828125 L 9.671875 -16.828125 L 14.390625 -4.953125 C 14.554688 -4.554688 14.695312 -4.195312 14.8125 -3.875 C 14.9375 -3.550781 15.054688 -3.257812 15.171875 -3 C 15.328125 -2.625 15.460938 -2.316406 15.578125 -2.078125 C 15.691406 -1.835938 15.785156 -1.644531 15.859375 -1.5 C 15.929688 -1.351562 15.988281 -1.238281 16.03125 -1.15625 C 16.082031 -1.082031 16.132812 -1.019531 16.1875 -0.96875 C 16.289062 -0.851562 16.476562 -0.769531 16.75 -0.71875 C 17.019531 -0.675781 17.28125 -0.65625 17.53125 -0.65625 L 17.625 -0.5625 L 17.625 0 L 17.53125 0.09375 C 17.320312 0.0820312 17.070312 0.0664062 16.78125 0.046875 C 16.488281 0.0351562 16.191406 0.0234375 15.890625 0.015625 C 15.585938 0.00390625 15.296875 0 15.015625 0 C 14.742188 0 14.53125 0 14.375 0 C 13.707031 0.0195312 13.179688 0.0351562 12.796875 0.046875 C 12.421875 0.0664062 12.070312 0.0820312 11.75 0.09375 L 11.65625 0 L 11.65625 -0.5625 L 11.75 -0.65625 C 12.207031 -0.664062 12.5 -0.675781 12.625 -0.6875 C 12.75 -0.707031 12.867188 -0.738281 12.984375 -0.78125 C 13.210938 -0.851562 13.328125 -1.019531 13.328125 -1.28125 C 13.328125 -1.40625 13.296875 -1.597656 13.234375 -1.859375 C 13.179688 -2.117188 13.0625 -2.5 12.875 -3 L 11.3125 -6.984375 L 5.734375 -6.984375 L 4.109375 -3.40625 C 3.816406 -2.75 3.613281 -2.269531 3.5 -1.96875 C 3.394531 -1.675781 3.34375 -1.457031 3.34375 -1.3125 C 3.34375 -1.082031 3.453125 -0.914062 3.671875 -0.8125 C 3.898438 -0.707031 4.304688 -0.65625 4.890625 -0.65625 L 4.984375 -0.5625 L 4.984375 0 L 4.890625 0.09375 C 4.390625 0.0625 3.929688 0.0351562 3.515625 0.015625 C 3.109375 0.00390625 2.71875 0 2.34375 0 C 2.070312 0 1.722656 0.00390625 1.296875 0.015625 C 0.878906 0.0351562 0.507812 0.0625 0.1875 0.09375 Z M 6.078125 -7.859375 L 10.984375 -7.859375 L 8.75 -13.71875 Z M 6.078125 -7.859375 "/></g></g><g style="fill:#ffffff;fill-opacity:1;"><g transform="translate(94.366189, 67.11133)"><path style="stroke:none" d="M 11.609375 -4.046875 L 3.875 -13.859375 L 3.875 -5.53125 C 3.875 -4.632812 3.878906 -3.910156 3.890625 -3.359375 C 3.910156 -2.816406 3.9375 -2.382812 3.96875 -2.0625 C 4 -1.75 4.035156 -1.519531 4.078125 -1.375 C 4.128906 -1.226562 4.1875 -1.109375 4.25 -1.015625 C 4.394531 -0.859375 4.96875 -0.738281 5.96875 -0.65625 L 6.078125 -0.578125 L 6.078125 0.03125 L 5.96875 0.09375 C 5.789062 0.0820312 5.582031 0.0664062 5.34375 0.046875 C 5.113281 0.0351562 4.875 0.0234375 4.625 0.015625 C 4.375 0.00390625 4.132812 0 3.90625 0 C 3.6875 0 3.5 0 3.34375 0 C 3.195312 0 2.914062 0.00390625 2.5 0.015625 C 2.09375 0.0351562 1.582031 0.0625 0.96875 0.09375 L 0.875 0.03125 L 0.875 -0.578125 L 0.96875 -0.65625 C 1.476562 -0.6875 1.832031 -0.734375 2.03125 -0.796875 C 2.226562 -0.859375 2.363281 -0.929688 2.4375 -1.015625 C 2.507812 -1.109375 2.566406 -1.234375 2.609375 -1.390625 C 2.660156 -1.554688 2.695312 -1.804688 2.71875 -2.140625 C 2.738281 -2.472656 2.753906 -2.90625 2.765625 -3.4375 C 2.773438 -3.976562 2.78125 -4.675781 2.78125 -5.53125 L 2.78125 -13.28125 C 2.78125 -13.757812 2.765625 -14.203125 2.734375 -14.609375 C 2.703125 -15.023438 2.597656 -15.316406 2.421875 -15.484375 C 2.328125 -15.554688 2.175781 -15.617188 1.96875 -15.671875 C 1.769531 -15.722656 1.410156 -15.765625 0.890625 -15.796875 L 0.796875 -15.859375 L 0.796875 -16.46875 L 0.890625 -16.546875 C 1.234375 -16.515625 1.597656 -16.488281 1.984375 -16.46875 C 2.367188 -16.457031 2.648438 -16.453125 2.828125 -16.453125 C 3.097656 -16.453125 3.410156 -16.453125 3.765625 -16.453125 C 4.128906 -16.460938 4.445312 -16.476562 4.71875 -16.5 L 13.78125 -4.796875 C 14.101562 -4.367188 14.375 -4.007812 14.59375 -3.71875 C 14.8125 -3.4375 15.035156 -3.132812 15.265625 -2.8125 L 15.265625 -10.90625 C 15.265625 -11.789062 15.253906 -12.507812 15.234375 -13.0625 C 15.222656 -13.625 15.203125 -14.066406 15.171875 -14.390625 C 15.140625 -14.710938 15.097656 -14.945312 15.046875 -15.09375 C 14.992188 -15.238281 14.9375 -15.351562 14.875 -15.4375 C 14.726562 -15.59375 14.148438 -15.710938 13.140625 -15.796875 L 13.03125 -15.859375 L 13.03125 -16.46875 L 13.140625 -16.546875 C 13.296875 -16.523438 13.492188 -16.503906 13.734375 -16.484375 C 13.972656 -16.472656 14.21875 -16.460938 14.46875 -16.453125 C 14.71875 -16.453125 14.957031 -16.453125 15.1875 -16.453125 C 15.425781 -16.453125 15.617188 -16.453125 15.765625 -16.453125 C 15.910156 -16.453125 16.191406 -16.457031 16.609375 -16.46875 C 17.035156 -16.488281 17.554688 -16.515625 18.171875 -16.546875 L 18.234375 -16.46875 L 18.234375 -15.859375 L 18.171875 -15.796875 C 17.648438 -15.765625 17.285156 -15.710938 17.078125 -15.640625 C 16.878906 -15.578125 16.742188 -15.507812 16.671875 -15.4375 C 16.597656 -15.351562 16.535156 -15.226562 16.484375 -15.0625 C 16.441406 -14.90625 16.40625 -14.660156 16.375 -14.328125 C 16.351562 -13.992188 16.335938 -13.550781 16.328125 -13 C 16.328125 -12.457031 16.328125 -11.757812 16.328125 -10.90625 L 16.328125 -3.171875 C 16.328125 -2.640625 16.335938 -2.070312 16.359375 -1.46875 C 16.390625 -0.875 16.421875 -0.398438 16.453125 -0.046875 L 16.296875 0.046875 C 16.085938 0.0351562 15.84375 0.0234375 15.5625 0.015625 C 15.28125 0.00390625 14.960938 0 14.609375 0 Z M 11.609375 -4.046875 "/></g></g><g style="fill:#ffffff;fill-opacity:1;"><g transform="translate(113.155147, 67.11133)"><path style="stroke:none" d="M 1.3125 -8.125 C 1.3125 -9.394531 1.503906 -10.566406 1.890625 -11.640625 C 2.273438 -12.710938 2.835938 -13.632812 3.578125 -14.40625 C 4.316406 -15.1875 5.234375 -15.796875 6.328125 -16.234375 C 7.429688 -16.671875 8.703125 -16.890625 10.140625 -16.890625 C 11.441406 -16.890625 12.628906 -16.707031 13.703125 -16.34375 C 14.773438 -15.988281 15.691406 -15.46875 16.453125 -14.78125 C 17.222656 -14.101562 17.816406 -13.257812 18.234375 -12.25 C 18.648438 -11.238281 18.859375 -10.082031 18.859375 -8.78125 C 18.859375 -7.539062 18.644531 -6.363281 18.21875 -5.25 C 17.789062 -4.132812 17.179688 -3.160156 16.390625 -2.328125 C 15.609375 -1.503906 14.664062 -0.847656 13.5625 -0.359375 C 12.457031 0.117188 11.226562 0.359375 9.875 0.359375 C 10.226562 0.441406 10.632812 0.5625 11.09375 0.71875 C 11.550781 0.882812 12 1.054688 12.4375 1.234375 C 14.039062 1.816406 15.476562 2.265625 16.75 2.578125 C 18.03125 2.890625 19.035156 3.046875 19.765625 3.046875 C 19.910156 3.046875 20.101562 3.019531 20.34375 2.96875 C 20.582031 2.925781 20.820312 2.847656 21.0625 2.734375 L 21.1875 2.8125 L 21.1875 3.125 L 21.140625 3.234375 C 20.992188 3.304688 20.816406 3.40625 20.609375 3.53125 C 20.398438 3.65625 20.191406 3.78125 19.984375 3.90625 C 19.785156 4.039062 19.601562 4.171875 19.4375 4.296875 C 19.28125 4.429688 19.175781 4.53125 19.125 4.59375 C 18.519531 4.59375 17.722656 4.488281 16.734375 4.28125 C 15.753906 4.070312 14.675781 3.78125 13.5 3.40625 C 12.125 2.957031 11.050781 2.628906 10.28125 2.421875 C 9.519531 2.210938 9.003906 2.109375 8.734375 2.109375 C 8.640625 2.109375 8.535156 2.113281 8.421875 2.125 C 8.316406 2.144531 8.1875 2.179688 8.03125 2.234375 C 7.882812 2.296875 7.703125 2.378906 7.484375 2.484375 C 7.265625 2.585938 6.988281 2.734375 6.65625 2.921875 L 6.5625 2.859375 L 6.5625 2.421875 L 6.625 2.28125 C 7.1875 1.84375 7.707031 1.457031 8.1875 1.125 C 8.664062 0.789062 9.050781 0.546875 9.34375 0.390625 C 8.082031 0.390625 6.953125 0.164062 5.953125 -0.28125 C 4.960938 -0.738281 4.125 -1.351562 3.4375 -2.125 C 2.757812 -2.90625 2.234375 -3.8125 1.859375 -4.84375 C 1.492188 -5.875 1.3125 -6.96875 1.3125 -8.125 Z M 3.75 -8.328125 C 3.75 -7.328125 3.890625 -6.363281 4.171875 -5.4375 C 4.453125 -4.507812 4.863281 -3.6875 5.40625 -2.96875 C 5.945312 -2.257812 6.625 -1.691406 7.4375 -1.265625 C 8.25 -0.835938 9.1875 -0.625 10.25 -0.625 C 11.269531 -0.625 12.160156 -0.804688 12.921875 -1.171875 C 13.691406 -1.535156 14.332031 -2.039062 14.84375 -2.6875 C 15.363281 -3.332031 15.753906 -4.101562 16.015625 -5 C 16.273438 -5.90625 16.40625 -6.890625 16.40625 -7.953125 C 16.40625 -9.296875 16.253906 -10.46875 15.953125 -11.46875 C 15.648438 -12.46875 15.222656 -13.289062 14.671875 -13.9375 C 14.128906 -14.59375 13.46875 -15.082031 12.6875 -15.40625 C 11.90625 -15.726562 11.039062 -15.890625 10.09375 -15.890625 C 8.925781 -15.890625 7.941406 -15.675781 7.140625 -15.25 C 6.347656 -14.820312 5.695312 -14.253906 5.1875 -13.546875 C 4.675781 -12.847656 4.304688 -12.039062 4.078125 -11.125 C 3.859375 -10.21875 3.75 -9.285156 3.75 -8.328125 Z M 3.75 -8.328125 "/></g></g><g style="fill:#ffffff;fill-opacity:1;"><g transform="translate(133.274082, 67.11133)"><path style="stroke:none" d="M 0.09375 0 L 0.09375 -0.5625 L 0.1875 -0.65625 C 0.414062 -0.6875 0.617188 -0.71875 0.796875 -0.75 C 0.972656 -0.78125 1.144531 -0.851562 1.3125 -0.96875 C 1.488281 -1.09375 1.660156 -1.28125 1.828125 -1.53125 C 1.992188 -1.78125 2.191406 -2.132812 2.421875 -2.59375 L 7.15625 -12.390625 C 7.539062 -13.171875 7.914062 -13.925781 8.28125 -14.65625 C 8.644531 -15.382812 9 -16.109375 9.34375 -16.828125 L 9.671875 -16.828125 L 14.390625 -4.953125 C 14.554688 -4.554688 14.695312 -4.195312 14.8125 -3.875 C 14.9375 -3.550781 15.054688 -3.257812 15.171875 -3 C 15.328125 -2.625 15.460938 -2.316406 15.578125 -2.078125 C 15.691406 -1.835938 15.785156 -1.644531 15.859375 -1.5 C 15.929688 -1.351562 15.988281 -1.238281 16.03125 -1.15625 C 16.082031 -1.082031 16.132812 -1.019531 16.1875 -0.96875 C 16.289062 -0.851562 16.476562 -0.769531 16.75 -0.71875 C 17.019531 -0.675781 17.28125 -0.65625 17.53125 -0.65625 L 17.625 -0.5625 L 17.625 0 L 17.53125 0.09375 C 17.320312 0.0820312 17.070312 0.0664062 16.78125 0.046875 C 16.488281 0.0351562 16.191406 0.0234375 15.890625 0.015625 C 15.585938 0.00390625 15.296875 0 15.015625 0 C 14.742188 0 14.53125 0 14.375 0 C 13.707031 0.0195312 13.179688 0.0351562 12.796875 0.046875 C 12.421875 0.0664062 12.070312 0.0820312 11.75 0.09375 L 11.65625 0 L 11.65625 -0.5625 L 11.75 -0.65625 C 12.207031 -0.664062 12.5 -0.675781 12.625 -0.6875 C 12.75 -0.707031 12.867188 -0.738281 12.984375 -0.78125 C 13.210938 -0.851562 13.328125 -1.019531 13.328125 -1.28125 C 13.328125 -1.40625 13.296875 -1.597656 13.234375 -1.859375 C 13.179688 -2.117188 13.0625 -2.5 12.875 -3 L 11.3125 -6.984375 L 5.734375 -6.984375 L 4.109375 -3.40625 C 3.816406 -2.75 3.613281 -2.269531 3.5 -1.96875 C 3.394531 -1.675781 3.34375 -1.457031 3.34375 -1.3125 C 3.34375 -1.082031 3.453125 -0.914062 3.671875 -0.8125 C 3.898438 -0.707031 4.304688 -0.65625 4.890625 -0.65625 L 4.984375 -0.5625 L 4.984375 0 L 4.890625 0.09375 C 4.390625 0.0625 3.929688 0.0351562 3.515625 0.015625 C 3.109375 0.00390625 2.71875 0 2.34375 0 C 2.070312 0 1.722656 0.00390625 1.296875 0.015625 C 0.878906 0.0351562 0.507812 0.0625 0.1875 0.09375 Z M 6.078125 -7.859375 L 10.984375 -7.859375 L 8.75 -13.71875 Z M 6.078125 -7.859375 "/></g></g><g style="fill:#ffffff;fill-opacity:1;"><g transform="translate(151.119962, 67.11133)"><path style="stroke:none" d="M 6.5625 -12.359375 C 6.5625 -12.585938 6.5625 -12.84375 6.5625 -13.125 C 6.5625 -13.414062 6.554688 -13.703125 6.546875 -13.984375 C 6.535156 -14.273438 6.519531 -14.546875 6.5 -14.796875 C 6.488281 -15.046875 6.472656 -15.242188 6.453125 -15.390625 L 4.046875 -15.390625 C 3.523438 -15.390625 3.085938 -15.375 2.734375 -15.34375 C 2.378906 -15.320312 2.097656 -15.25 1.890625 -15.125 C 1.835938 -15.082031 1.785156 -14.898438 1.734375 -14.578125 C 1.691406 -14.253906 1.640625 -13.648438 1.578125 -12.765625 L 1.5 -12.65625 L 0.9375 -12.65625 L 0.84375 -12.75 C 0.832031 -13.71875 0.820312 -14.503906 0.8125 -15.109375 C 0.800781 -15.710938 0.78125 -16.160156 0.75 -16.453125 L 0.84375 -16.546875 C 1.519531 -16.515625 2.414062 -16.488281 3.53125 -16.46875 C 4.644531 -16.457031 6.007812 -16.453125 7.625 -16.453125 C 9.28125 -16.453125 10.65625 -16.457031 11.75 -16.46875 C 12.851562 -16.488281 13.742188 -16.515625 14.421875 -16.546875 L 14.53125 -16.453125 C 14.5 -16.097656 14.472656 -15.613281 14.453125 -15 C 14.429688 -14.382812 14.421875 -13.632812 14.421875 -12.75 L 14.3125 -12.65625 L 13.78125 -12.65625 L 13.6875 -12.765625 C 13.625 -13.296875 13.570312 -13.710938 13.53125 -14.015625 C 13.488281 -14.328125 13.453125 -14.5625 13.421875 -14.71875 C 13.390625 -14.882812 13.359375 -14.992188 13.328125 -15.046875 C 13.304688 -15.109375 13.273438 -15.15625 13.234375 -15.1875 C 13.148438 -15.25 13.003906 -15.296875 12.796875 -15.328125 C 12.597656 -15.367188 12.191406 -15.390625 11.578125 -15.390625 L 8.828125 -15.390625 C 8.804688 -15.242188 8.785156 -15.046875 8.765625 -14.796875 C 8.753906 -14.546875 8.742188 -14.273438 8.734375 -13.984375 C 8.734375 -13.703125 8.734375 -13.414062 8.734375 -13.125 C 8.734375 -12.84375 8.734375 -12.585938 8.734375 -12.359375 L 8.734375 -5.515625 C 8.734375 -4.609375 8.734375 -3.882812 8.734375 -3.34375 C 8.742188 -2.8125 8.753906 -2.382812 8.765625 -2.0625 C 8.785156 -1.75 8.816406 -1.519531 8.859375 -1.375 C 8.898438 -1.226562 8.953125 -1.109375 9.015625 -1.015625 C 9.097656 -0.929688 9.234375 -0.859375 9.421875 -0.796875 C 9.617188 -0.734375 9.976562 -0.6875 10.5 -0.65625 L 10.59375 -0.578125 L 10.59375 0.03125 L 10.5 0.09375 C 10.1875 0.0820312 9.878906 0.0664062 9.578125 0.046875 C 9.273438 0.0351562 8.988281 0.0234375 8.71875 0.015625 C 8.457031 0.00390625 8.226562 0 8.03125 0 C 7.832031 0 7.703125 0 7.640625 0 C 7.554688 0 7.414062 0 7.21875 0 C 7.03125 0 6.800781 0.00390625 6.53125 0.015625 C 6.269531 0.0234375 5.984375 0.0351562 5.671875 0.046875 C 5.367188 0.0664062 5.066406 0.0820312 4.765625 0.09375 L 4.671875 0.03125 L 4.671875 -0.578125 L 4.765625 -0.65625 C 5.273438 -0.6875 5.628906 -0.734375 5.828125 -0.796875 C 6.035156 -0.859375 6.179688 -0.929688 6.265625 -1.015625 C 6.328125 -1.109375 6.378906 -1.226562 6.421875 -1.375 C 6.460938 -1.519531 6.488281 -1.75 6.5 -2.0625 C 6.519531 -2.382812 6.535156 -2.8125 6.546875 -3.34375 C 6.554688 -3.882812 6.5625 -4.609375 6.5625 -5.515625 Z M 6.5625 -12.359375 "/></g></g><g style="fill:#ffffff;fill-opacity:1;"><g transform="translate(166.402624, 67.11133)"><path style="stroke:none" d="M 14.828125 -10.90625 C 14.828125 -11.789062 14.816406 -12.507812 14.796875 -13.0625 C 14.785156 -13.625 14.765625 -14.066406 14.734375 -14.390625 C 14.703125 -14.710938 14.660156 -14.945312 14.609375 -15.09375 C 14.554688 -15.238281 14.5 -15.351562 14.4375 -15.4375 C 14.289062 -15.59375 13.710938 -15.710938 12.703125 -15.796875 L 12.625 -15.859375 L 12.625 -16.46875 L 12.703125 -16.546875 C 12.859375 -16.523438 13.054688 -16.503906 13.296875 -16.484375 C 13.546875 -16.472656 13.796875 -16.460938 14.046875 -16.453125 C 14.296875 -16.453125 14.535156 -16.453125 14.765625 -16.453125 C 15.003906 -16.453125 15.203125 -16.453125 15.359375 -16.453125 C 15.484375 -16.453125 15.753906 -16.457031 16.171875 -16.46875 C 16.597656 -16.488281 17.117188 -16.515625 17.734375 -16.546875 L 17.828125 -16.46875 L 17.828125 -15.859375 L 17.734375 -15.796875 C 17.210938 -15.765625 16.847656 -15.710938 16.640625 -15.640625 C 16.441406 -15.578125 16.304688 -15.507812 16.234375 -15.4375 C 16.171875 -15.351562 16.113281 -15.226562 16.0625 -15.0625 C 16.007812 -14.90625 15.972656 -14.660156 15.953125 -14.328125 C 15.929688 -13.992188 15.914062 -13.550781 15.90625 -13 C 15.894531 -12.457031 15.890625 -11.757812 15.890625 -10.90625 L 15.890625 -6.5625 C 15.890625 -5.425781 15.769531 -4.429688 15.53125 -3.578125 C 15.289062 -2.722656 14.898438 -2.003906 14.359375 -1.421875 C 13.828125 -0.847656 13.128906 -0.414062 12.265625 -0.125 C 11.410156 0.164062 10.367188 0.3125 9.140625 0.3125 C 7.835938 0.3125 6.769531 0.164062 5.9375 -0.125 C 5.101562 -0.425781 4.441406 -0.867188 3.953125 -1.453125 C 3.472656 -2.046875 3.144531 -2.773438 2.96875 -3.640625 C 2.789062 -4.515625 2.703125 -5.523438 2.703125 -6.671875 L 2.703125 -10.9375 C 2.703125 -11.820312 2.703125 -12.539062 2.703125 -13.09375 C 2.703125 -13.65625 2.691406 -14.09375 2.671875 -14.40625 C 2.660156 -14.71875 2.632812 -14.945312 2.59375 -15.09375 C 2.5625 -15.238281 2.507812 -15.351562 2.4375 -15.4375 C 2.363281 -15.507812 2.226562 -15.578125 2.03125 -15.640625 C 1.832031 -15.710938 1.476562 -15.765625 0.96875 -15.796875 L 0.875 -15.859375 L 0.875 -16.46875 L 0.96875 -16.546875 C 1.269531 -16.523438 1.570312 -16.503906 1.875 -16.484375 C 2.1875 -16.472656 2.472656 -16.460938 2.734375 -16.453125 C 3.003906 -16.453125 3.234375 -16.453125 3.421875 -16.453125 C 3.617188 -16.453125 3.757812 -16.453125 3.84375 -16.453125 C 3.90625 -16.453125 4.03125 -16.453125 4.21875 -16.453125 C 4.414062 -16.453125 4.648438 -16.453125 4.921875 -16.453125 C 5.191406 -16.460938 5.476562 -16.472656 5.78125 -16.484375 C 6.082031 -16.503906 6.390625 -16.523438 6.703125 -16.546875 L 6.796875 -16.46875 L 6.796875 -15.859375 L 6.703125 -15.796875 C 6.179688 -15.765625 5.820312 -15.710938 5.625 -15.640625 C 5.425781 -15.578125 5.285156 -15.507812 5.203125 -15.4375 C 5.140625 -15.351562 5.085938 -15.238281 5.046875 -15.09375 C 5.003906 -14.945312 4.972656 -14.71875 4.953125 -14.40625 C 4.941406 -14.09375 4.9375 -13.65625 4.9375 -13.09375 C 4.9375 -12.539062 4.9375 -11.820312 4.9375 -10.9375 L 4.9375 -7.453125 C 4.9375 -6.535156 4.972656 -5.6875 5.046875 -4.90625 C 5.128906 -4.132812 5.332031 -3.46875 5.65625 -2.90625 C 5.976562 -2.34375 6.460938 -1.898438 7.109375 -1.578125 C 7.753906 -1.265625 8.640625 -1.109375 9.765625 -1.109375 C 11.585938 -1.109375 12.882812 -1.554688 13.65625 -2.453125 C 14.4375 -3.347656 14.828125 -4.695312 14.828125 -6.5 Z M 14.828125 -10.90625 "/></g></g><g style="fill:#ffffff;fill-opacity:1;"><g transform="translate(184.732122, 67.11133)"><path style="stroke:none" d="M 3.625 0 C 3.351562 0 3.03125 0.00390625 2.65625 0.015625 C 2.289062 0.0351562 1.921875 0.0625 1.546875 0.09375 L 1.453125 0 L 1.453125 -0.390625 L 1.546875 -0.515625 C 2.015625 -0.671875 2.304688 -0.804688 2.421875 -0.921875 C 2.503906 -1.003906 2.578125 -1.445312 2.640625 -2.25 C 2.710938 -3.050781 2.75 -4.140625 2.75 -5.515625 L 2.75 -10.9375 C 2.75 -11.820312 2.75 -12.539062 2.75 -13.09375 C 2.75 -13.65625 2.738281 -14.09375 2.71875 -14.40625 C 2.707031 -14.71875 2.679688 -14.945312 2.640625 -15.09375 C 2.609375 -15.238281 2.554688 -15.351562 2.484375 -15.4375 C 2.410156 -15.507812 2.273438 -15.578125 2.078125 -15.640625 C 1.890625 -15.710938 1.535156 -15.765625 1.015625 -15.796875 L 0.921875 -15.859375 L 0.921875 -16.46875 L 1.015625 -16.546875 C 1.316406 -16.523438 1.617188 -16.503906 1.921875 -16.484375 C 2.234375 -16.472656 2.519531 -16.460938 2.78125 -16.453125 C 3.050781 -16.453125 3.28125 -16.453125 3.46875 -16.453125 C 3.664062 -16.453125 3.804688 -16.453125 3.890625 -16.453125 C 3.953125 -16.453125 4.082031 -16.453125 4.28125 -16.453125 C 4.476562 -16.453125 4.707031 -16.453125 4.96875 -16.453125 C 5.238281 -16.460938 5.523438 -16.472656 5.828125 -16.484375 C 6.128906 -16.503906 6.4375 -16.523438 6.75 -16.546875 L 6.84375 -16.46875 L 6.84375 -15.859375 L 6.75 -15.796875 C 6.226562 -15.765625 5.867188 -15.710938 5.671875 -15.640625 C 5.472656 -15.578125 5.332031 -15.507812 5.25 -15.4375 C 5.1875 -15.351562 5.132812 -15.238281 5.09375 -15.09375 C 5.050781 -14.945312 5.019531 -14.71875 5 -14.40625 C 4.988281 -14.09375 4.984375 -13.65625 4.984375 -13.09375 C 4.984375 -12.539062 4.984375 -11.820312 4.984375 -10.9375 L 4.984375 -5.75 C 4.984375 -5.070312 4.984375 -4.304688 4.984375 -3.453125 C 4.992188 -2.597656 5.023438 -1.785156 5.078125 -1.015625 L 6.765625 -1.015625 C 7.484375 -1.015625 8.101562 -1.019531 8.625 -1.03125 C 9.144531 -1.039062 9.613281 -1.0625 10.03125 -1.09375 C 10.457031 -1.132812 10.832031 -1.179688 11.15625 -1.234375 C 11.488281 -1.296875 11.816406 -1.375 12.140625 -1.46875 C 12.191406 -1.550781 12.242188 -1.6875 12.296875 -1.875 C 12.359375 -2.070312 12.421875 -2.289062 12.484375 -2.53125 C 12.546875 -2.78125 12.597656 -3.03125 12.640625 -3.28125 C 12.691406 -3.539062 12.734375 -3.785156 12.765625 -4.015625 L 12.875 -4.09375 L 13.453125 -4.09375 L 13.546875 -4.015625 C 13.515625 -3.804688 13.484375 -3.519531 13.453125 -3.15625 C 13.421875 -2.789062 13.382812 -2.410156 13.34375 -2.015625 C 13.3125 -1.617188 13.285156 -1.234375 13.265625 -0.859375 C 13.253906 -0.492188 13.25 -0.207031 13.25 0 L 13.15625 0.09375 C 12.789062 0.0820312 12.347656 0.0664062 11.828125 0.046875 C 11.304688 0.0351562 10.75 0.0234375 10.15625 0.015625 C 9.570312 0.00390625 8.960938 0 8.328125 0 C 7.691406 0 7.066406 0 6.453125 0 Z M 3.625 0 "/></g></g><g style="fill:#ffffff;fill-opacity:1;"><g transform="translate(198.974977, 67.11133)"><path style="stroke:none" d="M 3.625 0 C 3.351562 0 3.03125 0.00390625 2.65625 0.015625 C 2.289062 0.0351562 1.921875 0.0625 1.546875 0.09375 L 1.453125 0 L 1.453125 -0.390625 L 1.546875 -0.515625 C 2.015625 -0.671875 2.304688 -0.804688 2.421875 -0.921875 C 2.503906 -1.003906 2.578125 -1.445312 2.640625 -2.25 C 2.710938 -3.050781 2.75 -4.140625 2.75 -5.515625 L 2.75 -10.9375 C 2.75 -11.820312 2.75 -12.539062 2.75 -13.09375 C 2.75 -13.65625 2.738281 -14.09375 2.71875 -14.40625 C 2.707031 -14.71875 2.679688 -14.945312 2.640625 -15.09375 C 2.609375 -15.238281 2.554688 -15.351562 2.484375 -15.4375 C 2.410156 -15.507812 2.273438 -15.578125 2.078125 -15.640625 C 1.890625 -15.710938 1.535156 -15.765625 1.015625 -15.796875 L 0.921875 -15.859375 L 0.921875 -16.46875 L 1.015625 -16.546875 C 1.316406 -16.523438 1.617188 -16.503906 1.921875 -16.484375 C 2.234375 -16.472656 2.519531 -16.460938 2.78125 -16.453125 C 3.050781 -16.453125 3.28125 -16.453125 3.46875 -16.453125 C 3.664062 -16.453125 3.804688 -16.453125 3.890625 -16.453125 C 3.953125 -16.453125 4.082031 -16.453125 4.28125 -16.453125 C 4.476562 -16.453125 4.707031 -16.453125 4.96875 -16.453125 C 5.238281 -16.460938 5.523438 -16.472656 5.828125 -16.484375 C 6.128906 -16.503906 6.4375 -16.523438 6.75 -16.546875 L 6.84375 -16.46875 L 6.84375 -15.859375 L 6.75 -15.796875 C 6.226562 -15.765625 5.867188 -15.710938 5.671875 -15.640625 C 5.472656 -15.578125 5.332031 -15.507812 5.25 -15.4375 C 5.1875 -15.351562 5.132812 -15.238281 5.09375 -15.09375 C 5.050781 -14.945312 5.019531 -14.71875 5 -14.40625 C 4.988281 -14.09375 4.984375 -13.65625 4.984375 -13.09375 C 4.984375 -12.539062 4.984375 -11.820312 4.984375 -10.9375 L 4.984375 -5.75 C 4.984375 -5.070312 4.984375 -4.304688 4.984375 -3.453125 C 4.992188 -2.597656 5.023438 -1.785156 5.078125 -1.015625 L 6.765625 -1.015625 C 7.484375 -1.015625 8.101562 -1.019531 8.625 -1.03125 C 9.144531 -1.039062 9.613281 -1.0625 10.03125 -1.09375 C 10.457031 -1.132812 10.832031 -1.179688 11.15625 -1.234375 C 11.488281 -1.296875 11.816406 -1.375 12.140625 -1.46875 C 12.191406 -1.550781 12.242188 -1.6875 12.296875 -1.875 C 12.359375 -2.070312 12.421875 -2.289062 12.484375 -2.53125 C 12.546875 -2.78125 12.597656 -3.03125 12.640625 -3.28125 C 12.691406 -3.539062 12.734375 -3.785156 12.765625 -4.015625 L 12.875 -4.09375 L 13.453125 -4.09375 L 13.546875 -4.015625 C 13.515625 -3.804688 13.484375 -3.519531 13.453125 -3.15625 C 13.421875 -2.789062 13.382812 -2.410156 13.34375 -2.015625 C 13.3125 -1.617188 13.285156 -1.234375 13.265625 -0.859375 C 13.253906 -0.492188 13.25 -0.207031 13.25 0 L 13.15625 0.09375 C 12.789062 0.0820312 12.347656 0.0664062 11.828125 0.046875 C 11.304688 0.0351562 10.75 0.0234375 10.15625 0.015625 C 9.570312 0.00390625 8.960938 0 8.328125 0 C 7.691406 0 7.066406 0 6.453125 0 Z M 3.625 0 "/></g></g><g style="fill:#ffffff;fill-opacity:1;"><g transform="translate(213.217833, 67.11133)"><path style="stroke:none" d="M 0.09375 0 L 0.09375 -0.5625 L 0.1875 -0.65625 C 0.414062 -0.6875 0.617188 -0.71875 0.796875 -0.75 C 0.972656 -0.78125 1.144531 -0.851562 1.3125 -0.96875 C 1.488281 -1.09375 1.660156 -1.28125 1.828125 -1.53125 C 1.992188 -1.78125 2.191406 -2.132812 2.421875 -2.59375 L 7.15625 -12.390625 C 7.539062 -13.171875 7.914062 -13.925781 8.28125 -14.65625 C 8.644531 -15.382812 9 -16.109375 9.34375 -16.828125 L 9.671875 -16.828125 L 14.390625 -4.953125 C 14.554688 -4.554688 14.695312 -4.195312 14.8125 -3.875 C 14.9375 -3.550781 15.054688 -3.257812 15.171875 -3 C 15.328125 -2.625 15.460938 -2.316406 15.578125 -2.078125 C 15.691406 -1.835938 15.785156 -1.644531 15.859375 -1.5 C 15.929688 -1.351562 15.988281 -1.238281 16.03125 -1.15625 C 16.082031 -1.082031 16.132812 -1.019531 16.1875 -0.96875 C 16.289062 -0.851562 16.476562 -0.769531 16.75 -0.71875 C 17.019531 -0.675781 17.28125 -0.65625 17.53125 -0.65625 L 17.625 -0.5625 L 17.625 0 L 17.53125 0.09375 C 17.320312 0.0820312 17.070312 0.0664062 16.78125 0.046875 C 16.488281 0.0351562 16.191406 0.0234375 15.890625 0.015625 C 15.585938 0.00390625 15.296875 0 15.015625 0 C 14.742188 0 14.53125 0 14.375 0 C 13.707031 0.0195312 13.179688 0.0351562 12.796875 0.046875 C 12.421875 0.0664062 12.070312 0.0820312 11.75 0.09375 L 11.65625 0 L 11.65625 -0.5625 L 11.75 -0.65625 C 12.207031 -0.664062 12.5 -0.675781 12.625 -0.6875 C 12.75 -0.707031 12.867188 -0.738281 12.984375 -0.78125 C 13.210938 -0.851562 13.328125 -1.019531 13.328125 -1.28125 C 13.328125 -1.40625 13.296875 -1.597656 13.234375 -1.859375 C 13.179688 -2.117188 13.0625 -2.5 12.875 -3 L 11.3125 -6.984375 L 5.734375 -6.984375 L 4.109375 -3.40625 C 3.816406 -2.75 3.613281 -2.269531 3.5 -1.96875 C 3.394531 -1.675781 3.34375 -1.457031 3.34375 -1.3125 C 3.34375 -1.082031 3.453125 -0.914062 3.671875 -0.8125 C 3.898438 -0.707031 4.304688 -0.65625 4.890625 -0.65625 L 4.984375 -0.5625 L 4.984375 0 L 4.890625 0.09375 C 4.390625 0.0625 3.929688 0.0351562 3.515625 0.015625 C 3.109375 0.00390625 2.71875 0 2.34375 0 C 2.070312 0 1.722656 0.00390625 1.296875 0.015625 C 0.878906 0.0351562 0.507812 0.0625 0.1875 0.09375 Z M 6.078125 -7.859375 L 10.984375 -7.859375 L 8.75 -13.71875 Z M 6.078125 -7.859375 "/></g></g><g style="fill:#ffffff;fill-opacity:1;"><g transform="translate(231.063705, 67.11133)"><path style="stroke:none" d="M 14.5625 -8.203125 C 14.238281 -8.210938 13.847656 -8.222656 13.390625 -8.234375 C 12.929688 -8.242188 12.46875 -8.25 12 -8.25 C 11.53125 -8.25 11.085938 -8.25 10.671875 -8.25 C 10.265625 -8.25 9.945312 -8.25 9.71875 -8.25 C 9.476562 -8.25 9.171875 -8.25 8.796875 -8.25 C 8.429688 -8.25 8.03125 -8.242188 7.59375 -8.234375 C 7.15625 -8.222656 6.710938 -8.210938 6.265625 -8.203125 C 5.816406 -8.203125 5.390625 -8.191406 4.984375 -8.171875 L 4.984375 -5.53125 C 4.984375 -4.632812 4.984375 -3.910156 4.984375 -3.359375 C 4.984375 -2.816406 4.988281 -2.382812 5 -2.0625 C 5.019531 -1.75 5.050781 -1.519531 5.09375 -1.375 C 5.132812 -1.226562 5.1875 -1.109375 5.25 -1.015625 C 5.332031 -0.929688 5.472656 -0.859375 5.671875 -0.796875 C 5.867188 -0.734375 6.226562 -0.6875 6.75 -0.65625 L 6.84375 -0.578125 L 6.84375 0.03125 L 6.75 0.09375 C 6.4375 0.0820312 6.128906 0.0664062 5.828125 0.046875 C 5.523438 0.0351562 5.238281 0.0234375 4.96875 0.015625 C 4.707031 0.00390625 4.476562 0 4.28125 0 C 4.082031 0 3.945312 0 3.875 0 C 3.789062 0 3.65625 0 3.46875 0 C 3.28125 0 3.050781 0.00390625 2.78125 0.015625 C 2.519531 0.0234375 2.234375 0.0351562 1.921875 0.046875 C 1.617188 0.0664062 1.316406 0.0820312 1.015625 0.09375 L 0.921875 0.03125 L 0.921875 -0.578125 L 1.015625 -0.65625 C 1.535156 -0.6875 1.890625 -0.734375 2.078125 -0.796875 C 2.273438 -0.859375 2.410156 -0.929688 2.484375 -1.015625 C 2.554688 -1.109375 2.609375 -1.226562 2.640625 -1.375 C 2.679688 -1.519531 2.707031 -1.75 2.71875 -2.0625 C 2.738281 -2.382812 2.75 -2.8125 2.75 -3.34375 C 2.75 -3.882812 2.75 -4.609375 2.75 -5.515625 L 2.75 -10.9375 C 2.75 -11.820312 2.75 -12.539062 2.75 -13.09375 C 2.75 -13.65625 2.738281 -14.09375 2.71875 -14.40625 C 2.707031 -14.71875 2.679688 -14.945312 2.640625 -15.09375 C 2.609375 -15.238281 2.554688 -15.351562 2.484375 -15.4375 C 2.410156 -15.507812 2.273438 -15.578125 2.078125 -15.640625 C 1.890625 -15.710938 1.535156 -15.765625 1.015625 -15.796875 L 0.921875 -15.859375 L 0.921875 -16.46875 L 1.015625 -16.546875 C 1.316406 -16.523438 1.617188 -16.503906 1.921875 -16.484375 C 2.234375 -16.472656 2.519531 -16.460938 2.78125 -16.453125 C 3.050781 -16.453125 3.28125 -16.453125 3.46875 -16.453125 C 3.664062 -16.453125 3.804688 -16.453125 3.890625 -16.453125 C 3.953125 -16.453125 4.082031 -16.453125 4.28125 -16.453125 C 4.476562 -16.453125 4.707031 -16.453125 4.96875 -16.453125 C 5.238281 -16.460938 5.523438 -16.472656 5.828125 -16.484375 C 6.128906 -16.503906 6.4375 -16.523438 6.75 -16.546875 L 6.84375 -16.46875 L 6.84375 -15.859375 L 6.75 -15.796875 C 6.226562 -15.765625 5.867188 -15.710938 5.671875 -15.640625 C 5.472656 -15.578125 5.332031 -15.507812 5.25 -15.4375 C 5.1875 -15.351562 5.132812 -15.238281 5.09375 -15.09375 C 5.050781 -14.945312 5.019531 -14.71875 5 -14.40625 C 4.988281 -14.09375 4.984375 -13.65625 4.984375 -13.09375 C 4.984375 -12.539062 4.984375 -11.820312 4.984375 -10.9375 L 4.984375 -9.3125 C 6.671875 -9.257812 8.273438 -9.234375 9.796875 -9.234375 C 10.804688 -9.234375 11.710938 -9.238281 12.515625 -9.25 C 13.328125 -9.257812 14.007812 -9.28125 14.5625 -9.3125 L 14.5625 -10.9375 C 14.5625 -11.820312 14.5625 -12.539062 14.5625 -13.09375 C 14.5625 -13.65625 14.550781 -14.09375 14.53125 -14.40625 C 14.519531 -14.71875 14.492188 -14.945312 14.453125 -15.09375 C 14.410156 -15.238281 14.359375 -15.351562 14.296875 -15.4375 C 14.210938 -15.507812 14.066406 -15.578125 13.859375 -15.640625 C 13.660156 -15.710938 13.304688 -15.765625 12.796875 -15.796875 L 12.703125 -15.859375 L 12.703125 -16.46875 L 12.796875 -16.546875 C 13.097656 -16.523438 13.40625 -16.503906 13.71875 -16.484375 C 14.039062 -16.472656 14.332031 -16.460938 14.59375 -16.453125 C 14.863281 -16.453125 15.085938 -16.453125 15.265625 -16.453125 C 15.453125 -16.453125 15.585938 -16.453125 15.671875 -16.453125 C 15.734375 -16.453125 15.859375 -16.453125 16.046875 -16.453125 C 16.242188 -16.453125 16.476562 -16.453125 16.75 -16.453125 C 17.019531 -16.460938 17.304688 -16.472656 17.609375 -16.484375 C 17.910156 -16.503906 18.21875 -16.523438 18.53125 -16.546875 L 18.625 -16.46875 L 18.625 -15.859375 L 18.53125 -15.796875 C 18.007812 -15.765625 17.648438 -15.710938 17.453125 -15.640625 C 17.265625 -15.578125 17.128906 -15.507812 17.046875 -15.4375 C 16.984375 -15.351562 16.929688 -15.238281 16.890625 -15.09375 C 16.847656 -14.945312 16.816406 -14.71875 16.796875 -14.40625 C 16.785156 -14.09375 16.78125 -13.65625 16.78125 -13.09375 C 16.78125 -12.539062 16.78125 -11.820312 16.78125 -10.9375 L 16.78125 -5.53125 C 16.78125 -4.632812 16.78125 -3.910156 16.78125 -3.359375 C 16.78125 -2.816406 16.785156 -2.382812 16.796875 -2.0625 C 16.816406 -1.75 16.847656 -1.519531 16.890625 -1.375 C 16.929688 -1.226562 16.984375 -1.109375 17.046875 -1.015625 C 17.128906 -0.929688 17.265625 -0.859375 17.453125 -0.796875 C 17.648438 -0.734375 18.007812 -0.6875 18.53125 -0.65625 L 18.625 -0.578125 L 18.625 0.03125 L 18.53125 0.09375 C 18.21875 0.0820312 17.910156 0.0664062 17.609375 0.046875 C 17.304688 0.0351562 17.019531 0.0234375 16.75 0.015625 C 16.476562 0.00390625 16.242188 0 16.046875 0 C 15.859375 0 15.726562 0 15.65625 0 C 15.582031 0 15.445312 0 15.25 0 C 15.0625 0 14.835938 0.00390625 14.578125 0.015625 C 14.328125 0.0234375 14.039062 0.0351562 13.71875 0.046875 C 13.40625 0.0664062 13.097656 0.0820312 12.796875 0.09375 L 12.703125 0.03125 L 12.703125 -0.578125 L 12.796875 -0.65625 C 13.304688 -0.6875 13.660156 -0.734375 13.859375 -0.796875 C 14.066406 -0.859375 14.210938 -0.929688 14.296875 -1.015625 C 14.359375 -1.109375 14.410156 -1.226562 14.453125 -1.375 C 14.492188 -1.519531 14.519531 -1.75 14.53125 -2.0625 C 14.550781 -2.382812 14.5625 -2.8125 14.5625 -3.34375 C 14.5625 -3.882812 14.5625 -4.609375 14.5625 -5.515625 Z M 14.5625 -8.203125 "/></g></g></g></svg>